<svg width="24" height="24" viewBox="0 0 24 24" fill="none" xmlns="http://www.w3.org/2000/svg">
<path fill-rule="evenodd" clip-rule="evenodd" d="M17.5 2.47397C19.022 3.35197 19.334 5.29397 19.08 7.23997C19.0493 7.4813 19.009 7.72863 18.959 7.98197C19.2037 8.06597 19.438 8.15463 19.662 8.24797C21.474 9.00197 23 10.243 23 12C23 13.757 21.474 14.998 19.662 15.752C19.4373 15.8453 19.203 15.934 18.959 16.018C19.009 16.2713 19.0493 16.5186 19.08 16.76C19.334 18.706 19.022 20.648 17.5 21.526C15.979 22.405 14.14 21.704 12.582 20.512C12.3831 20.3591 12.189 20.2 12 20.035C11.8047 20.205 11.6107 20.364 11.418 20.512C9.86 21.704 8.022 22.405 6.5 21.526C4.979 20.648 4.667 18.706 4.92 16.76C4.95291 16.5114 4.99359 16.264 5.042 16.018C4.79667 15.934 4.562 15.8453 4.338 15.752C2.526 14.998 1 13.757 1 12C1 10.243 2.526 9.00197 4.338 8.24797C4.56267 8.15463 4.79733 8.06597 5.042 7.98197C4.992 7.72863 4.95133 7.4813 4.92 7.23997C4.667 5.29397 4.979 3.35197 6.5 2.47397C8.021 1.59597 9.86 2.29597 11.418 3.48897C11.6113 3.63563 11.8053 3.7943 12 3.96497C12.1953 3.79497 12.3893 3.6363 12.582 3.48897C14.141 2.29597 15.978 1.59497 17.5 2.47397ZM6.98 16.537C6.95 16.7023 6.92467 16.8626 6.904 17.018C6.671 18.811 7.11 19.568 7.501 19.794C7.893 20.02 8.768 20.022 10.204 18.924C10.3328 18.8247 10.4592 18.7224 10.583 18.617C10.09 18.0576 9.62571 17.4735 9.192 16.867C8.44955 16.7945 7.71126 16.6844 6.98 16.537ZM17.023 16.537C16.3323 16.6776 15.595 16.7876 14.811 16.867C14.3503 17.507 13.8867 18.0903 13.42 18.617C13.5473 18.7256 13.6733 18.8276 13.798 18.923C15.234 20.022 16.11 20.02 16.501 19.794C16.893 19.568 17.331 18.811 17.098 17.018C17.0769 16.857 17.0519 16.6967 17.023 16.537ZM5.56 9.91997C5.40727 9.97461 5.25589 10.033 5.106 10.095C3.436 10.789 3 11.548 3 12C3 12.452 3.437 13.211 5.106 13.905C5.25133 13.965 5.40267 14.0233 5.56 14.08C5.79823 13.3732 6.07225 12.6789 6.381 12C6.07259 11.321 5.7979 10.6268 5.56 9.91997ZM18.44 9.91997C18.2021 10.6268 17.9284 11.321 17.62 12C17.944 12.717 18.218 13.413 18.44 14.08C18.5927 14.0253 18.7441 13.967 18.894 13.905C20.564 13.211 21 12.452 21 12C21 11.548 20.564 10.79 18.894 10.095C18.7441 10.033 18.5927 9.97461 18.44 9.91997ZM12 10.5C11.6022 10.5 11.2206 10.658 10.9393 10.9393C10.658 11.2206 10.5 11.6021 10.5 12C10.5 12.3978 10.658 12.7793 10.9393 13.0606C11.2206 13.3419 11.6022 13.5 12 13.5C12.3978 13.5 12.7794 13.3419 13.0607 13.0606C13.342 12.7793 13.5 12.3978 13.5 12C13.5 11.6021 13.342 11.2206 13.0607 10.9393C12.7794 10.658 12.3978 10.5 12 10.5ZM10.203 5.07697C8.767 3.97797 7.892 3.97997 7.5 4.20597C7.108 4.43197 6.67 5.18897 6.903 6.98197C6.923 7.13797 6.94833 7.2983 6.979 7.46297C7.669 7.3223 8.40633 7.2123 9.191 7.13297C9.62471 6.52644 10.089 5.94235 10.582 5.38297C10.4582 5.27791 10.3318 5.17588 10.203 5.07697ZM13.798 5.07697C13.6689 5.17586 13.5422 5.27789 13.418 5.38297C13.886 5.90963 14.35 6.49297 14.81 7.13297C15.593 7.21097 16.333 7.32297 17.022 7.46297C17.0509 7.3036 17.0759 7.14355 17.097 6.98297C17.331 5.18997 16.892 4.43197 16.5 4.20597C16.109 3.97997 15.233 3.97897 13.797 5.07697H13.798Z" fill="url(#paint0_linear_151_2455)"/>
<defs>
<linearGradient id="paint0_linear_151_2455" x1="12" y1="2.07959" x2="12" y2="21.9204" gradientUnits="userSpaceOnUse">
<stop stop-color="#C4C4C4"/>
<stop offset="1" stop-color="#727272"/>
</linearGradient>
</defs>
</svg>
